# xmcd CD database file generated by OrangeCD 5.2
#
# Track frame offsets:
#	150
#	17598
#	30462
#	43053
#	68214
#	81162
#	93003
#	104395
#	118301
#	130312
#	142743
#	155242
#	169119
#	181775
#	195769
#	209023
#	219755
#	239096
#	250520
#	271009
#	300712
#	316148
#	337795
#
# Disc length: 4706 seconds
#
# Revision: 1
# Processed by: cddbd v1.5.2PL0 Copyright (c) Steve Scherf et al.
# Submitted via: OrangeCD 5.2
#
DISCID=31126017
DTITLE=Various Artist - Blues Classics Volume 1
DYEAR=2006
DGENRE=Dance Blues
TTITLE0=Jerry Boogie McCain - Honky Tonk
TTITLE1=Albert King - Born Under A Bad Sign
TTITLE2=Howlin' Wolf - Spoonful
TTITLE3=B.B. King - Thrill Is Gone
TTITLE4=Jimmy Reed - You Got Me Dizzy
TTITLE5=Sonny Boy Williamson - Bring It On Home
TTITLE6=Howlin' Wolf - The Red Rooster
TTITLE7=Slim Harpo - I'm A King Bee
TTITLE8=Bobby "Blue" Bland - Turn On Your Love Light
TTITLE9=Jimmy Reed - Honest I Do
TTITLE10=Little Walter - Juke
TTITLE11=B.B. King - Rock Me Baby
TTITLE12=Elmore James - The Sky Is Crying
TTITLE13=Chuck Berry - Wee Wee Hours
TTITLE14=Elmore James - Dust My Broom
TTITLE15=Jimmy Reed - Take Out Some Insurance
TTITLE16=B.B. King - Inflation Blues
TTITLE17=Lightnin' Slim - Rooster Blues
TTITLE18=John Lee Hooker - I'm In The Mood
TTITLE19=Bo Diddley - Ooh Baby - Wreaking My Love Life
TTITLE20=Ray Charles - (Night Time Is) Right Time
TTITLE21=B.B. King - Darlin' You Know I Love You
TTITLE22=Erskine Hawkins - After Hours
EXTD=
EXTT0=
EXTT1=
EXTT2=
EXTT3=
EXTT4=
EXTT5=
EXTT6=
EXTT7=
EXTT8=
EXTT9=
EXTT10=
EXTT11=
EXTT12=
EXTT13=
EXTT14=
EXTT15=
EXTT16=
EXTT17=
EXTT18=
EXTT19=
EXTT20=
EXTT21=
EXTT22=
PLAYORDER=
